<?xml version="1.0" encoding="UTF-8"?><svg id="a" xmlns="http://www.w3.org/2000/svg" xmlns:xlink="http://www.w3.org/1999/xlink" viewBox="0 0 1000 1000"><defs><style>.d{fill:#cbd5e1;}.e{clip-path:url(#c);}.f{clip-path:url(#b);}</style><clipPath id="b"><polygon class="d" points="205.31 580.83 136.13 541.48 136.13 703.2 163.8 687.21 163.8 641.71 184.71 653.7 184.4 622.65 163.8 610.66 163.8 592.51 205.31 616.8 205.31 580.83"/></clipPath><clipPath id="c"><polygon class="d" points="60.8 580.83 129.98 541.48 129.98 703.2 102.31 687.21 102.31 592.51 60.8 616.8 60.8 580.83"/></clipPath></defs><g><g transform="translate(-64.6 -23.3)"><polygon class="d" points="824.7 398.33 824.7 401.55 820.01 401.55 820.01 412.74 816.5 412.74 816.5 401.55 811.82 401.55 811.82 398.33 824.7 398.33"/><polygon class="d" points="838.75 412.74 838.75 401.79 838.75 401.79 835.82 412.74 832.9 412.74 829.38 401.79 829.38 401.79 829.38 412.74 825.87 412.74 825.87 398.33 831.72 398.33 834.07 407.93 836.41 398.33 842.26 398.33 842.26 412.74 838.75 412.74"/></g><g transform="matrix(.9958 0 0 1 -57.13 -23.3)"><path class="d" d="M677.88,411.92c-5.25,2.23-10.5,3.34-15.8,3.34-8.4,0-15.98-1.46-22.68-4.39-6.71-2.93-12.36-6.97-16.97-12.12-4.61-5.15-8.16-11.18-10.61-18.15-2.45-6.97-3.67-14.46-3.67-22.48s1.22-15.87,3.67-22.95c2.45-7.08,5.95-13.23,10.55-18.44,4.61-5.27,10.26-9.37,16.97-12.35s14.23-4.51,22.68-4.51c5.66,0,11.08,.88,16.33,2.58,5.25,1.7,10.03,4.22,14.29,7.49s7.75,7.38,10.5,12.24,4.43,10.42,5.07,16.69h-22.97c-1.46-6.15-4.2-10.77-8.28-13.88-4.08-3.1-9.04-4.63-14.93-4.63-5.42,0-10.03,1.05-13.82,3.16-3.79,2.11-6.88,4.92-9.21,8.49s-4.08,7.61-5.13,12.12c-1.05,4.51-1.63,9.19-1.63,14.05s.52,9.13,1.63,13.53c1.05,4.39,2.8,8.31,5.13,11.83s5.42,6.32,9.21,8.43,8.4,3.16,13.82,3.16c7.99,0,14.17-2.05,18.54-6.09,4.37-4.04,6.88-9.9,7.64-17.62h-24.26v-18.21h46v59.55h-15.33l-2.45-12.47c-4.26,5.56-9.04,9.43-14.29,11.65h0Z"/><path class="d" d="M749.07,302.6v89.65h53.47v20.44h-77.55v-110.08h24.08Z"/><path class="d" d="M635.26,426.38c-36.79,22.48-91.95,35.25-153.47,35.25-110.84,0-200.64-46.32-200.64-103.52s89.85-103.52,200.64-103.52c61.75,0,117.08,13.06,153.87,35.66-40.12-37.88-112.18-64.47-194.51-64.53-126.18,0-228.45,59.26-228.45,132.39s102.27,132.45,228.39,132.45c82.04,0,153.87-26.52,194.16-64.17h0Z"/></g><g transform="translate(-61.6,-23.3)"><polygon class="d" points="339.58 385.92 318.33 293.99 298.24 293.99 329.75 413.85 348.6 413.85 375.12 319.69 401.3 413.85 420.21 413.85 452.83 293.99 431.57 293.99 410.32 385.92 384.67 293.99 365.23 293.99 339.58 385.92"/><path class="d" d="M505.87,344.46c-2.93-4.16-6.62-7.32-10.95-9.49-4.45-2.23-9.6-3.34-15.34-3.34-6.44,0-12.24,1.17-17.27,3.45-4.74,2.17-8.78,5.39-12.06,9.54-6.03,7.67-9.19,18.5-9.19,31.33,0,5.68,.82,11.07,2.4,15.87,1.58,4.86,3.98,9.13,7.03,12.71,6.44,7.49,15.63,11.48,26.58,11.48,5.74,0,10.42-.59,14.35-1.82,3.4-1.05,5.68-2.46,7.55-3.69,2.4-1.58,4.57-3.51,6.56-5.74,1.64-1.93,3.1-4.04,4.39-6.32,2.23-4.1,3.34-7.96,3.57-9.95l.18-1.35h-15.63l-.06,1.11c-.41,5.09-7.08,14.17-18.97,14.17-16.98,0-21.02-12.3-21.31-23.13h56.91v-1.23c0-6.97-.7-13.35-2.11-18.91-1.58-5.8-3.75-10.72-6.62-14.7h0Zm-28.11,1.23c12.59,0,19.32,6.79,20.55,20.73h-40.75c.64-11.3,9.6-20.73,20.2-20.73Z"/><path class="d" d="M593.24,355.94c-1.52-4.86-3.75-9.13-6.62-12.71-2.99-3.69-6.62-6.56-10.77-8.55-4.33-2.05-9.19-3.1-14.46-3.1-4.86,.06-9.25,1.11-13.12,3.16-3.22,1.64-6.09,3.98-8.55,6.91v-36.77h-15.58v108.91h14.81v-7.44c1.29,1.7,2.99,3.51,5.21,5.09,4.22,3.04,9.43,4.57,15.46,4.57,6.5,0,12.35-1.46,17.27-4.33,4.39-2.58,8.14-6.27,11.07-10.95,2.58-4.1,4.51-8.96,5.8-14.4,1.11-4.68,1.7-9.84,1.7-14.87,.06-5.45-.7-10.72-2.23-15.52h0Zm-13.99,17.68c0,8.55-1.7,15.69-4.98,20.73-3.45,5.33-8.49,8.02-14.93,8.02-9.31,0-20.2-6.5-20.2-24.89,0-8.78,1.11-15.58,3.34-20.73,3.22-7.44,8.67-11.01,16.57-11.01,8.43,0,14.11,3.28,17.27,10.13,2.58,5.62,2.93,12.47,2.93,17.74Z"/></g></g><g><g><polygon class="d" points="205.31 580.83 136.13 541.48 136.13 703.2 163.8 687.21 163.8 641.71 184.71 653.7 184.4 622.65 163.8 610.66 163.8 592.51 205.31 616.8 205.31 580.83"/><g class="f"><path class="d" d="M54.34,540.86H224.06v162.65H54.34v-162.65Z"/></g></g><g><polygon class="d" points="60.8 580.83 129.98 541.48 129.98 703.2 102.31 687.21 102.31 592.51 60.8 616.8 60.8 580.83"/><g class="e"><path class="d" d="M53.42,540.86H223.14v162.65H53.42v-162.65Z"/></g></g><path class="d" d="M330.44,591.59h-30.75v85.17h-17.22v-85.17h-30.75v-13.84h78.71v13.84Z"/><path class="d" d="M351.05,677.99c-10.45,0-19.06-3.38-25.52-9.84-6.46-6.46-9.84-15.37-9.84-26.44v-2.15c0-6.76,1.23-13.53,4.3-19.68,2.77-5.53,6.76-10.15,11.99-13.53,5.23-3.38,11.07-4.92,17.22-4.92,10.15,0,17.83,3.07,23.37,9.53s8.3,15.37,8.3,27.06v6.76h-48.27c.31,5.53,2.46,10.45,6.15,14.45,3.69,3.69,8.3,5.53,13.53,5.23,7.38,.31,14.14-3.38,18.45-9.22l8.92,8.61c-3.07,4.3-7.07,7.99-11.68,10.15-5.53,3.07-11.07,4.3-16.91,4Zm-1.84-63.03c-4.3-.31-8.3,1.54-11.07,4.61-3.07,3.69-4.92,8.3-5.23,13.22h31.67v-1.23c-.31-5.53-1.84-9.84-4.3-12.61-3.07-2.46-7.07-4.3-11.07-4Zm59.65-11.99l.61,8.61c5.23-6.46,13.22-10.15,21.52-9.84,15.37,0,23.06,8.92,23.37,26.44v48.58h-16.6v-47.66c0-4.61-.92-7.99-3.07-10.45-2.15-2.15-5.23-3.38-9.84-3.38-6.46-.31-12.3,3.38-15.07,8.92v52.27h-16.6v-73.79l15.68,.31Zm99,53.81c0-2.77-1.23-5.23-3.69-6.76-3.69-2.15-7.99-3.38-11.99-4-4.92-.92-9.53-2.46-14.14-4.61-8.3-4-12.3-9.84-12.3-17.22,0-6.15,3.07-12.3,7.99-15.99,5.23-4.3,12.3-6.46,20.29-6.46,8.92,0,15.99,2.15,21.22,6.46,5.23,4,8.3,10.45,7.99,16.91h-16.6c0-3.07-1.23-5.84-3.69-7.99-2.77-2.15-5.84-3.38-9.53-3.07-3.07,0-6.15,.61-8.92,2.46-2.15,1.54-3.38,4-3.38,6.76,0,2.46,1.23,4.61,3.07,5.84,2.15,1.54,6.46,2.77,12.91,4.3,5.23,.92,10.45,2.77,15.37,5.23,3.38,1.54,6.15,4,8.3,7.07,1.84,3.07,2.77,6.46,2.77,10.15,0,6.46-3.07,12.3-8.3,15.99-5.53,4-12.61,6.15-21.52,6.15-5.53,0-11.07-.92-15.99-3.38-4.3-1.84-8.3-4.92-11.07-8.92-2.46-3.69-4-7.99-4-12.3h15.99c0,3.38,1.54,6.76,4.3,8.92,3.07,2.15,7.07,3.38,10.76,3.07,4.3,0,7.69-.92,9.84-2.46,3.07-1.23,4.3-3.69,4.3-6.15h0Zm24.9-17.53c0-6.76,1.23-13.53,4.3-19.37,2.77-5.53,6.76-10.15,11.99-13.22,5.53-3.07,11.68-4.92,17.83-4.61,9.84,0,18.14,3.07,24.29,9.53,6.15,6.46,9.53,14.76,10.15,25.52v4c0,6.76-1.23,13.22-4.3,19.37-2.46,5.53-6.76,10.15-11.99,13.22-5.53,3.07-11.68,4.92-18.14,4.61-10.45,0-18.76-3.38-24.9-10.45-6.15-6.76-9.22-15.99-9.53-27.67l.31-.92Zm16.3,1.54c0,7.69,1.54,13.53,4.61,17.83,5.53,7.07,15.68,8.61,23.06,3.07,1.23-.92,2.15-1.84,3.07-3.07,3.07-4.3,4.61-10.76,4.61-19.06,0-7.38-1.54-13.22-4.92-17.83-5.23-7.07-15.37-8.61-22.75-3.38-1.23,.92-2.46,2.15-3.38,3.07-2.46,4.3-4.3,10.76-4.3,19.37Zm101.77-22.44c-2.15-.31-4.61-.61-6.76-.61-7.69,0-12.61,2.77-15.37,8.61v50.42h-16.6v-73.79h15.68l.31,8.3c4-6.46,9.53-9.53,16.6-9.53,1.84,0,4,.31,5.84,.92l.31,15.68h0Zm69.18,16.3h-39.97v42.12h-17.22v-99h63.03v13.84h-45.81v29.52h39.97v13.53Zm32.9,42.12h-16.6v-99.31h16.6v99.31Zm11.99-37.51c0-6.76,1.23-13.53,4.3-19.37,2.77-5.53,6.76-10.15,11.99-13.22,5.53-3.07,11.68-4.92,17.83-4.61,9.84,0,18.14,3.07,24.29,9.53,6.15,6.46,9.53,14.76,10.15,25.52v4c0,6.76-1.23,13.22-4,19.37-2.46,5.53-6.76,10.15-11.99,13.22-5.53,3.07-11.68,4.92-18.14,4.61-10.45,0-18.76-3.38-24.9-10.45-6.15-6.76-9.53-15.99-9.53-27.67v-.92h0Zm16.6,1.54c0,7.69,1.54,13.53,4.61,17.83,3.07,4.3,7.99,6.76,13.22,6.46,5.23,.31,10.15-2.15,12.91-6.46,3.07-4.3,4.61-10.76,4.61-19.06,0-7.38-1.54-13.22-4.92-17.83-5.23-7.07-15.37-8.61-22.75-3.38-1.23,.92-2.46,2.15-3.38,3.07-2.77,4.3-4.3,10.76-4.3,19.37Zm126.68,13.22l11.68-50.73h15.99l-19.99,73.79h-13.53l-15.68-50.73-15.68,50.73h-13.53l-20.29-73.79h16.3l11.99,50.42,15.07-50.42h12.61l15.07,50.73h0Z"/></g></svg>